<svg width="300" height="227" viewBox="0 0 300 227" fill="none" xmlns="http://www.w3.org/2000/svg">
<g clip-path="url(#clip0_7_2)">
<path d="M52.3648 25C85.3613 25 73.5273 75.786 100.963 94.1177C128.399 112.45 217.563 73.0191 200.73 108.609C193.199 124.53 165.864 137.213 165.864 137.213C165.864 137.213 139.693 150.502 130.998 165.817C115.736 192.7 172.689 227.224 148.865 252C122.416 279.506 50.159 183 12 183C-26.159 183 -39.3297 243.891 -39.3297 243.891L-26.2685 165.817L-96 108.609C-96 108.609 -28.9685 115.991 3.76674 94.1177C31.2024 75.786 19.3683 25 52.3648 25Z" fill="#FF7A05" fill-opacity="0.5"/>
<path d="M395.835 16.6365C391.106 -26.9153 254.616 34.1428 221 21C206.614 15.3754 206.737 -28.1221 184.835 -29.8937C162.933 -31.6653 99.34 -11.0845 102.086 16.6365C104.833 44.3576 159.488 44.0735 168.641 80.5278C177.793 116.982 137.551 130.432 158.187 160.954C178.824 191.477 220.511 135.468 261.201 135.468C301.892 135.468 319.097 191.477 339.734 160.954C360.371 130.432 295.909 108.215 305.062 71.7611C314.214 35.3068 400.564 60.1883 395.835 16.6365Z" fill="#FFBF00" fill-opacity="0.48"/>
</g>
<defs>
<clipPath id="clip0_7_2">
<rect width="300" height="227" fill="white"/>
</clipPath>
</defs>
</svg>
